<?xml version="1.0" standalone="no"?><!DOCTYPE svg PUBLIC "-//W3C//DTD SVG 1.1//EN" "http://www.w3.org/Graphics/SVG/1.1/DTD/svg11.dtd"><svg t="1621835523686" class="icon" viewBox="0 0 1024 1024" version="1.1" xmlns="http://www.w3.org/2000/svg" p-id="1194" xmlns:xlink="http://www.w3.org/1999/xlink" width="200" height="200"><defs><style type="text/css"></style></defs><path d="M512 961.9C263.9 961.9 62.1 760.1 62.1 512S263.9 62.1 512 62.1c248.1 0 449.9 201.8 449.9 449.9S760.1 961.9 512 961.9z m0-787.3C325.9 174.6 174.6 326 174.6 512c0 186.1 151.4 337.4 337.4 337.4S849.4 698.1 849.4 512c0-186.1-151.3-337.4-337.4-337.4z m-56.2 449.9h112.5V737H455.8V624.5z m112.4-56.3H455.8V287h112.5v281.2z" p-id="1195" fill="#999999"></path></svg>