<?xml version="1.0" encoding="UTF-8"?>
<svg width="16px" height="16px" viewBox="0 0 16 16" version="1.1" xmlns="http://www.w3.org/2000/svg" xmlns:xlink="http://www.w3.org/1999/xlink">
    <title>icon/16/未选中/事中监测分析</title>
    <g id="icon/16/未选中/事中监测分析" stroke="none" stroke-width="1" fill="none" fill-rule="evenodd">
        <g id="编组">
            <rect id="矩形" fill="#D8D8D8" opacity="0" x="0" y="0" width="16" height="16"></rect>
            <path d="M14.4285714,1 C14.7441627,1 15,1.25583729 15,1.57142857 L15,12.4285714 C15,12.7441627 14.7441627,13 14.4285714,13 L1.57142857,13 C1.25583729,13 1,12.7441627 1,12.4285714 L1,1.57142857 C1,1.25583729 1.25583729,1 1.57142857,1 L14.4285714,1 Z M14,2 L2,2 L2,12 L14,12 L14,2 Z" id="形状结合" fill="#333333"></path>
            <path d="M8,8.5 C8.27614237,8.5 8.5,8.72385763 8.5,9 L8.5,20 C8.5,20.2761424 8.27614237,20.5 8,20.5 C7.72385763,20.5 7.5,20.2761424 7.5,20 L7.5,9 C7.5,8.72385763 7.72385763,8.5 8,8.5 Z" id="矩形" fill="#333333" transform="translate(8.000000, 14.500000) rotate(-270.000000) translate(-8.000000, -14.500000) "></path>
            <path d="M5.92603997,5.16211053 L5.98418933,5.2311118 L7.854,7.90185714 L8.87702856,5.49165286 C8.98492598,5.23746246 9.27845616,5.11886857 9.53264655,5.22676599 C9.62395391,5.26552367 9.69776515,5.32823368 9.74986738,5.40446878 L9.75204647,5.40968322 L11.265,7.56985714 L12.3571429,7.57024311 C12.6332852,7.57024311 12.8571429,7.79410073 12.8571429,8.07024311 C12.8571429,8.34638548 12.6332852,8.57024311 12.3571429,8.57024311 L11.0178571,8.57024311 C10.9743903,8.57024311 10.9322189,8.56469656 10.8920121,8.55427263 C10.8785476,8.55095025 10.8651961,8.54736843 10.852002,8.5432375 C10.8471162,8.54036271 10.8421106,8.5385136 10.8371434,8.53658741 C10.7681758,8.51432371 10.704134,8.47522888 10.6503185,8.42195077 L10.5921691,8.3529495 L9.444,6.71385714 L8.42299713,9.12058856 L8.41763813,9.13023992 L8.42299713,9.12058856 C8.38506059,9.20996144 8.32417589,9.2825717 8.25012148,9.33446861 C8.24627807,9.33686177 8.2446626,9.33797907 8.24304287,9.33908557 C8.22256404,9.35319497 8.20078158,9.36565321 8.17821544,9.3764194 C8.16438937,9.38331555 8.15067818,9.38918034 8.1368148,9.39439403 C8.1261133,9.39793929 8.11460525,9.40176618 8.10296598,9.40517402 C8.08317143,9.41158337 8.06374153,9.41604326 8.0442001,9.4193221 C8.03634589,9.41992152 8.02789735,9.42111359 8.01941189,9.42208928 C7.96527489,9.42911793 7.91093912,9.4265225 7.85832254,9.41548189 C7.85590813,9.41377353 7.8535741,9.41325451 7.85124128,9.41271806 C7.76338371,9.39390088 7.68055838,9.35068605 7.61325958,9.28544337 L7.55152496,9.21294584 L5.686,6.54885714 L4.97154565,8.23691939 C4.90290353,8.43111309 4.71769954,8.57024311 4.5,8.57024311 L2,8.57024311 L2,7.57024311 L4.166,7.56985714 L5.08986165,5.39532749 C5.1112452,5.31060274 5.15479081,5.2311522 5.21882382,5.16647335 L5.28782509,5.10832399 C5.48889406,4.96753398 5.75757413,4.99532687 5.92603997,5.16211053 Z" id="形状结合" fill="#333333"></path>
        </g>
    </g>
</svg>