<?xml version="1.0" encoding="UTF-8"?>
<svg width="16px" height="16px" viewBox="0 0 16 16" version="1.1" xmlns="http://www.w3.org/2000/svg" xmlns:xlink="http://www.w3.org/1999/xlink">
    <title>icon/16/未选中/医疗组综合分析</title>
    <g id="icon/16/未选中/医疗组综合分析" stroke="none" stroke-width="1" fill="none" fill-rule="evenodd">
        <g id="icon-菜单-首页">
            <rect id="矩形" fill="#D8D8D8" opacity="0" x="0" y="0" width="16" height="16"></rect>
            <path d="M13.7142857,3.25 C14.029877,3.25 14.2857143,3.50583729 14.2857143,3.82142857 L14.2857143,14.4285714 C14.2857143,14.7441627 14.029877,15 13.7142857,15 L2.28571429,15 C1.970123,15 1.71428571,14.7441627 1.71428571,14.4285714 L1.71428571,3.82142857 C1.71428571,3.50583729 1.970123,3.25 2.28571429,3.25 L13.7142857,3.25 Z M13.2857143,4.25 L2.71428571,4.25 L2.71428571,14 L13.2857143,14 L13.2857143,4.25 Z" id="形状结合" fill="#333333"></path>
            <path d="M8,7.76785714 C8.27614237,7.76785714 8.5,7.99171477 8.5,8.26785714 L8.5,9.76785714 L10,9.76785714 C10.2761424,9.76785714 10.5,9.99171477 10.5,10.2678571 C10.5,10.5439995 10.2761424,10.7678571 10,10.7678571 L8.5,10.7678571 L8.5,12.2678571 C8.5,12.5439995 8.27614237,12.7678571 8,12.7678571 C7.72385763,12.7678571 7.5,12.5439995 7.5,12.2678571 L7.5,10.7668571 L6,10.7678571 C5.72385763,10.7678571 5.5,10.5439995 5.5,10.2678571 C5.5,9.99171477 5.72385763,9.76785714 6,9.76785714 L7.5,9.76685714 L7.5,8.26785714 C7.5,7.99171477 7.72385763,7.76785714 8,7.76785714 Z" id="形状结合" fill="#333333"></path>
            <path d="M11.9642857,1 C12.2404281,1 12.4642857,1.22385763 12.4642857,1.5 L12.4642857,3.60714286 C12.4642857,3.88328523 12.2404281,4.10714286 11.9642857,4.10714286 C11.6881433,4.10714286 11.4642857,3.88328523 11.4642857,3.60714286 L11.4637143,2 L4.53571429,2 L4.53571429,3.60714286 C4.53571429,3.88328523 4.31185666,4.10714286 4.03571429,4.10714286 C3.75957191,4.10714286 3.53571429,3.88328523 3.53571429,3.60714286 L3.53571429,1.5 C3.53571429,1.25454011 3.71258945,1.05039163 3.94583865,1.00805567 L4.03571429,1 L4.03571429,1 L11.9642857,1 L11.9642857,1 Z" id="形状结合" fill="#333333"></path>
            <rect id="矩形" fill="#333333" transform="translate(8.000000, 6.142857) rotate(-270.000000) translate(-8.000000, -6.142857) " x="7.5" y="-0.142857143" width="1" height="12.5714286" rx="0.5"></rect>
        </g>
    </g>
</svg>