<?xml version="1.0" encoding="UTF-8"?>
<svg width="16px" height="16px" viewBox="0 0 16 16" version="1.1" xmlns="http://www.w3.org/2000/svg" xmlns:xlink="http://www.w3.org/1999/xlink">
    <title>icon/16/未选中/医生综合分析</title>
    <g id="icon/16/未选中/医生综合分析" stroke="none" stroke-width="1" fill="none" fill-rule="evenodd">
        <g id="编组">
            <rect id="矩形" fill-opacity="0" fill="#D8D8D8" x="0" y="0" width="16" height="16"></rect>
            <path d="M8,9.01785714 L12.7805626,9.77840119 C13.6475729,9.91633465 14.2857143,10.6640237 14.2857143,11.5419375 L14.2857143,14.4285714 C14.2857143,14.7441627 14.029877,15 13.7142857,15 L2.28571429,15 C1.970123,15 1.71428571,14.7441627 1.71428571,14.4285714 L1.71428571,11.5419375 C1.71428571,10.6640237 2.3524271,9.91633465 3.21943741,9.77840119 L8,9.01785714 Z M8,10.0178571 L4.28694525,10.4640513 C3.38958421,10.5718863 2.71428571,11.3331932 2.71428571,12.2370102 L2.71428571,12.2370102 L2.71428571,13.4285714 C2.71428571,13.7441627 2.970123,14 3.28571429,14 L3.28571429,14 L12.7142857,14 C13.029877,14 13.2857143,13.7441627 13.2857143,13.4285714 L13.2857143,13.4285714 L13.2857143,12.2370102 C13.2857143,11.3331932 12.6104158,10.5718863 11.7130547,10.4640513 L11.7130547,10.4640513 L8,10.0178571 Z" id="形状结合" fill="#333333"></path>
            <path d="M11,6.017 L11,2 L5,2 L5,6.017 L4.99523788,6.01785714 C4.99523788,7.67471139 6.33838363,9.01785714 7.99523788,9.01785714 C9.65209212,9.01785714 10.9952379,7.67471139 10.9952379,6.01785714 L11,6.017 Z M7.99523788,10.0178571 C5.78609888,10.0178571 3.99523788,8.22699614 3.99523788,6.01785714 L4,6.01785714 L4,1.57142857 C4,1.25583729 4.25583729,1 4.57142857,1 L11.4285714,1 C11.7441627,1 12,1.25583729 12,1.57142857 L12,6.01785714 L11.9952379,6.01785714 C11.9952379,8.22699614 10.2043769,10.0178571 7.99523788,10.0178571 Z" id="形状结合" fill="#333333"></path>
            <path d="M8.5,2.23214286 L8.5,2.73214286 L9,2.73214286 L9,3.73214286 L8.499,3.73214286 L8.5,4.23214286 L7.5,4.23214286 L7.499,3.73214286 L7,3.73214286 L7,2.73214286 L7.5,2.73214286 L7.5,2.23214286 L8.5,2.23214286 Z" id="形状结合" fill="#333333"></path>
            <rect id="矩形" fill="#333333" x="4" y="4.44642857" width="8" height="1"></rect>
        </g>
    </g>
</svg>