<?xml version="1.0" encoding="UTF-8"?>
<svg width="16px" height="16px" viewBox="0 0 16 16" version="1.1" xmlns="http://www.w3.org/2000/svg" xmlns:xlink="http://www.w3.org/1999/xlink">
    <title>icon/16/未选中/学科发展分析</title>
    <g id="icon/16/未选中/学科发展分析" stroke="none" stroke-width="1" fill="none" fill-rule="evenodd">
        <g id="编组-2" transform="translate(1.000000, 1.000000)">
            <path d="M12.4207915,1.07995586 L13.9737058,6.87551081 C14.0451767,7.14224387 13.8868854,7.41641234 13.6201524,7.48788325 C13.554951,7.50535392 13.4893053,7.50909558 13.4262845,7.5008803 L7.48214286,7.5 C7.20600048,7.5 6.98214286,7.27614237 6.98214286,7 C6.98214286,6.72385763 7.20600048,6.5 7.48214286,6.5 L12.8371429,6.49924128 L11.4548657,1.3387749 C11.3833948,1.07204185 11.541686,0.797873371 11.8084191,0.726402465 C12.0751521,0.654931559 12.3493206,0.813222804 12.4207915,1.07995586 Z" id="形状结合" fill="#333333" transform="translate(10.486505, 4.107143) scale(-1, 1) translate(-10.486505, -4.107143) "></path>
            <path d="M7,0 C10.8659932,0 14,3.13400675 14,7 C14,10.8659932 10.8659932,14 7,14 C3.13400675,14 0,10.8659932 0,7 C0,3.13400675 3.13400675,0 7,0 Z M7,1 C3.6862915,1 1,3.6862915 1,7 C1,10.3137085 3.6862915,13 7,13 C10.3137085,13 13,10.3137085 13,7 C13,3.6862915 10.3137085,1 7,1 Z" id="形状结合" fill="#333333"></path>
            <g id="编组" transform="translate(10.491071, 4.107143) scale(-1, 1) translate(-10.491071, -4.107143) translate(6.982143, 0.696429)"></g>
        </g>
    </g>
</svg>