<?xml version="1.0" encoding="UTF-8"?>
<svg width="16px" height="16px" viewBox="0 0 16 16" version="1.1" xmlns="http://www.w3.org/2000/svg" xmlns:xlink="http://www.w3.org/1999/xlink">
    <title>icon/16/未选中/指标综合查询</title>
    <g id="icon/16/未选中/指标综合查询" stroke="none" stroke-width="1" fill="none" fill-rule="evenodd">
        <g id="编组-3">
            <rect id="矩形" fill="#D8D8D8" opacity="0" x="0" y="0" width="16" height="16"></rect>
            <path d="M14.4285714,1 C14.7441627,1 15,1.25583729 15,1.57142857 L15,14.4285714 C15,14.7441627 14.7441627,15 14.4285714,15 L1.57142857,15 C1.25583729,15 1,14.7441627 1,14.4285714 L1,1.57142857 C1,1.25583729 1.25583729,1 1.57142857,1 L14.4285714,1 Z M14,2 L2,2 L2,14 L14,14 L14,2 Z" id="形状结合" fill="#333333"></path>
            <g id="编组-2" transform="translate(10.287804, 10.278875) rotate(-315.000000) translate(-10.287804, -10.278875) translate(5.787804, 7.278875)" fill="#333333">
                <path d="M3,-1.72128978e-12 C4.48625501,-1.72128978e-12 5.72007807,1.0807897 5.9584039,2.49930382 L7.64644661,2.5 C7.92258898,2.5 8.14644661,2.72385763 8.14644661,3 C8.14644661,3.27614237 7.92258898,3.5 7.64644661,3.5 L5.9585702,3.49970531 C5.72065259,4.91870697 4.48660106,6 3,6 C1.34314575,6 1.13686838e-12,4.65685425 1.13686838e-12,3 C1.13686838e-12,1.34314575 1.34314575,-1.72128978e-12 3,-1.72128978e-12 Z M3,1 C1.8954305,1 1,1.8954305 1,3 C1,4.1045695 1.8954305,5 3,5 C4.1045695,5 5,4.1045695 5,3 C5,1.8954305 4.1045695,1 3,1 Z" id="形状结合"></path>
            </g>
            <path d="M7.10714286,0.0535714286 C7.38328523,0.0535714286 7.60714286,0.277429054 7.60714286,0.553571429 L7.60714286,7.55357143 C7.60714286,7.8297138 7.38328523,8.05357143 7.10714286,8.05357143 C6.83100048,8.05357143 6.60714286,7.8297138 6.60714286,7.55357143 L6.60714286,0.553571429 C6.60714286,0.277429054 6.83100048,0.0535714286 7.10714286,0.0535714286 Z" id="矩形" fill="#333333" transform="translate(7.107143, 4.053571) rotate(-270.000000) translate(-7.107143, -4.053571) "></path>
            <path d="M5.10714286,4.19642857 C5.38328523,4.19642857 5.60714286,4.4202862 5.60714286,4.69642857 L5.60714286,7.69642857 C5.60714286,7.97257095 5.38328523,8.19642857 5.10714286,8.19642857 C4.83100048,8.19642857 4.60714286,7.97257095 4.60714286,7.69642857 L4.60714286,4.69642857 C4.60714286,4.4202862 4.83100048,4.19642857 5.10714286,4.19642857 Z" id="矩形" fill="#333333" transform="translate(5.107143, 6.196429) rotate(-270.000000) translate(-5.107143, -6.196429) "></path>
        </g>
    </g>
</svg>