<?xml version="1.0" encoding="UTF-8"?>
<svg width="16px" height="16px" viewBox="0 0 16 16" version="1.1" xmlns="http://www.w3.org/2000/svg" xmlns:xlink="http://www.w3.org/1999/xlink">
    <title>icon/16/未选中/病例综合查询</title>
    <g id="icon/16/未选中/病例综合查询" stroke="none" stroke-width="1" fill="none" fill-rule="evenodd">
        <g id="编组-3">
            <rect id="矩形" fill="#D8D8D8" opacity="0" x="0" y="0" width="16" height="16"></rect>
            <path d="M14.4285714,2 C14.7441627,2 15,2.25583729 15,2.57142857 L15,14.4285714 C15,14.7441627 14.7441627,15 14.4285714,15 L1.57142857,15 C1.25583729,15 1,14.7441627 1,14.4285714 L1,2.57142857 C1,2.25583729 1.25583729,2 1.57142857,2 L14.4285714,2 Z M14,3 L2,3 L2,14 L14,14 L14,3 Z" id="形状结合" fill="#333333"></path>
            <g id="编组-2" transform="translate(8.610408, 8.864662) rotate(-315.000000) translate(-8.610408, -8.864662) translate(3.610408, 5.364662)" fill="#333333">
                <path d="M3.87867966,0.707106781 C5.36493467,0.707106781 6.59875772,1.78789648 6.83708356,3.2064106 L8.52512627,3.20710678 C8.80126864,3.20710678 9.02512627,3.43096441 9.02512627,3.70710678 C9.02512627,3.98324916 8.80126864,4.20710678 8.52512627,4.20710678 L6.83724986,4.20681209 C6.59933225,5.62581375 5.36528071,6.70710678 3.87867966,6.70710678 C2.22182541,6.70710678 0.878679656,5.36396103 0.878679656,3.70710678 C0.878679656,2.05025253 2.22182541,0.707106781 3.87867966,0.707106781 Z M3.87867966,1.70710678 C2.77411016,1.70710678 1.87867966,2.60253728 1.87867966,3.70710678 C1.87867966,4.81167628 2.77411016,5.70710678 3.87867966,5.70710678 C4.98324916,5.70710678 5.87867966,4.81167628 5.87867966,3.70710678 C5.87867966,2.60253728 4.98324916,1.70710678 3.87867966,1.70710678 Z" id="形状结合"></path>
            </g>
            <path d="M4.5,1 C4.77614237,1 5,1.22385763 5,1.5 L5,2.5 C5,2.77614237 4.77614237,3 4.5,3 C4.22385763,3 4,2.77614237 4,2.5 L4,1.5 C4,1.22385763 4.22385763,1 4.5,1 Z" id="矩形" fill="#333333" transform="translate(4.500000, 2.000000) rotate(-180.000000) translate(-4.500000, -2.000000) "></path>
            <path d="M11.5,1 C11.7761424,1 12,1.22385763 12,1.5 L12,2.5 C12,2.77614237 11.7761424,3 11.5,3 C11.2238576,3 11,2.77614237 11,2.5 L11,1.5 C11,1.22385763 11.2238576,1 11.5,1 Z" id="矩形备份" fill="#333333" transform="translate(11.500000, 2.000000) rotate(-180.000000) translate(-11.500000, -2.000000) "></path>
        </g>
    </g>
</svg>