<?xml version="1.0" encoding="UTF-8"?>
<svg width="16px" height="16px" viewBox="0 0 16 16" version="1.1" xmlns="http://www.w3.org/2000/svg" xmlns:xlink="http://www.w3.org/1999/xlink">
    <title>icon/16/未选中/病组综合分析</title>
    <g id="icon/16/未选中/病组综合分析" stroke="none" stroke-width="1" fill="none" fill-rule="evenodd">
        <g id="编组-3">
            <rect id="矩形" fill="#D8D8D8" opacity="0" x="0" y="0" width="16" height="16"></rect>
            <g id="编组-2" transform="translate(1.000000, 1.178571)" fill="#333333">
                <path d="M5.19642857,2.64285714 L7.83928571,4.42857143 L13.4285714,4.42857143 C13.7441627,4.42857143 14,4.68440871 14,5 L14,13.0714286 C14,13.3870199 13.7441627,13.6428571 13.4285714,13.6428571 L0.571428571,13.6428571 C0.255837286,13.6428571 -1.83395819e-16,13.3870199 0,13.0714286 L0,3.21428571 C-3.86487858e-17,2.89869443 0.255837286,2.64285714 0.571428571,2.64285714 L5.19642857,2.64285714 Z M5.19642857,3.64285714 L1,3.64285714 L1,12.6428571 L13,12.6428571 L13,5.42857143 L7.83928571,5.42857143 L5.19642857,3.64285714 Z" id="形状结合"></path>
                <path d="M11.9285714,0 C12.2441627,-5.79731787e-17 12.5,0.255837286 12.5,0.571428571 L12.5,5.28571429 L11.5,5.077 L11.5,1 L2.5,1 L2.5,3.208 L1.5,3 L1.5,0.571428571 C1.5,0.255837286 1.75583729,-1.64071426e-16 2.07142857,0 L11.9285714,0 Z" id="形状结合"></path>
                <g id="编组" transform="translate(2.553571, 1.785714)">
                    <path d="M2,4.85714286 C2.27614237,4.85714286 2.5,5.08100048 2.5,5.35714286 L2.5,8.35714286 C2.5,8.63328523 2.27614237,8.85714286 2,8.85714286 C1.72385763,8.85714286 1.5,8.63328523 1.5,8.35714286 L1.5,5.35714286 C1.5,5.08100048 1.72385763,4.85714286 2,4.85714286 Z" id="矩形备份-3" transform="translate(2.000000, 6.857143) rotate(-270.000000) translate(-2.000000, -6.857143) "></path>
                    <path d="M6.16071429,-1.5 C6.43685666,-1.5 6.66071429,-1.27614237 6.66071429,-1 L6.66071429,2 C6.66071429,2.27614237 6.43685666,2.5 6.16071429,2.5 C5.88457191,2.5 5.66071429,2.27614237 5.66071429,2 L5.66071429,-1 C5.66071429,-1.27614237 5.88457191,-1.5 6.16071429,-1.5 Z" id="矩形备份-3" transform="translate(6.160714, 0.500000) rotate(-270.000000) translate(-6.160714, -0.500000) "></path>
                    <path d="M2,4.85714286 C2.27614237,4.85714286 2.5,5.08100048 2.5,5.35714286 L2.5,8.35714286 C2.5,8.63328523 2.27614237,8.85714286 2,8.85714286 C1.72385763,8.85714286 1.5,8.63328523 1.5,8.35714286 L1.5,5.35714286 C1.5,5.08100048 1.72385763,4.85714286 2,4.85714286 Z" id="矩形备份-3" transform="translate(2.000000, 6.857143) rotate(-180.000000) translate(-2.000000, -6.857143) "></path>
                </g>
            </g>
        </g>
    </g>
</svg>