<?xml version="1.0" encoding="UTF-8"?>
<svg width="16px" height="16px" viewBox="0 0 16 16" version="1.1" xmlns="http://www.w3.org/2000/svg" xmlns:xlink="http://www.w3.org/1999/xlink">
    <title>icon/16/未选中/科室综合分析</title>
    <g id="icon/16/未选中/科室综合分析" stroke="none" stroke-width="1" fill="none" fill-rule="evenodd">
        <g id="icon-菜单-首页">
            <rect id="矩形" fill="#D8D8D8" opacity="0" x="0" y="0" width="16" height="16"></rect>
            <path d="M13.2857143,4.26785714 C13.837999,4.26785714 14.2857143,4.71557239 14.2857143,5.26785714 L14.2857143,14.0178571 C14.2857143,14.5701419 13.837999,15.0178571 13.2857143,15.0178571 L2.71428571,15.0178571 C2.16200096,15.0178571 1.71428571,14.5701419 1.71428571,14.0178571 L1.71428571,4.83928571 C1.71428571,4.52369443 1.970123,4.26785714 2.28571429,4.26785714 L13.2857143,4.26785714 Z M13.2857143,5.26785714 L2.71428571,5.26785714 L2.71428571,14.0178571 L13.2857143,14.0178571 L13.2857143,5.26785714 Z" id="形状结合" fill="#333333"></path>
            <path d="M8,7.05357143 C8.27614237,7.05357143 8.5,7.27742905 8.5,7.55357143 L8.5,9.05357143 L10,9.05357143 C10.2761424,9.05357143 10.5,9.27742905 10.5,9.55357143 C10.5,9.8297138 10.2761424,10.0535714 10,10.0535714 L8.5,10.0535714 L8.5,11.5535714 C8.5,11.8297138 8.27614237,12.0535714 8,12.0535714 C7.72385763,12.0535714 7.5,11.8297138 7.5,11.5535714 L7.5,10.0525714 L6,10.0535714 C5.72385763,10.0535714 5.5,9.8297138 5.5,9.55357143 C5.5,9.27742905 5.72385763,9.05357143 6,9.05357143 L7.5,9.05257143 L7.5,7.55357143 C7.5,7.27742905 7.72385763,7.05357143 8,7.05357143 Z" id="形状结合" fill="#333333"></path>
            <path d="M12.5,1.01785714 C12.7761424,1.01785714 13,1.24171477 13,1.51785714 C13,1.79399952 12.7761424,2.01785714 12.5,2.01785714 L11,2.01785714 L11,4.64285714 C11,4.91899952 10.7761424,5.14285714 10.5,5.14285714 C10.2238576,5.14285714 10,4.91899952 10,4.64285714 L10,2.01785714 L6,2.01785714 L6,2.01785714 L6,4.64285714 C6,4.91899952 5.77614237,5.14285714 5.5,5.14285714 C5.22385763,5.14285714 5,4.91899952 5,4.64285714 L5,2.01785714 L3.5,2.01785714 C3.22385763,2.01785714 3,1.79399952 3,1.51785714 C3,1.24171477 3.22385763,1.01785714 3.5,1.01785714 L12.5,1.01785714 Z" id="形状结合" fill="#333333"></path>
        </g>
    </g>
</svg>