<?xml version="1.0" encoding="UTF-8"?>
<svg width="16px" height="16px" viewBox="0 0 16 16" version="1.1" xmlns="http://www.w3.org/2000/svg" xmlns:xlink="http://www.w3.org/1999/xlink">
    <title>icon/16/选中/首页</title>
    <g id="icon/16/选中/首页" stroke="none" stroke-width="1" fill="none" fill-rule="evenodd">
        <g id="icon/16/菜单面" transform="translate(0.000000, 0.017240)">
            <rect id="矩形" fill="#D8D8D8" opacity="0" x="0" y="0" width="16" height="16"></rect>
            <path d="M8.49954003,1.30025104 L14.4548972,4.81689325 C14.7595167,4.9967713 14.9464286,5.32420947 14.9464286,5.67797378 L14.9464286,14 C14.9464286,14.5522847 14.4987133,15 13.9464286,15 L10.3571429,15 L10.3571429,11.6428571 C10.3571429,11.358825 10.1499147,11.1231936 9.87840297,11.0789076 L9.78571429,11.0714286 L6.21428571,11.0714286 C5.93025356,11.0714286 5.69462214,11.2786568 5.65033618,11.5501685 L5.64285714,11.6428571 L5.64285714,15 L2.03571429,15 C1.48342954,15 1.03571429,14.5522847 1.03571429,14 L1.03571429,5.43333196 C1.03571429,5.23118092 1.14252105,5.0440734 1.31658937,4.94128594 L7.48260282,1.30025104 C7.79627896,1.11502508 8.1858639,1.11502508 8.49954003,1.30025104 Z M6.79015556,4.53571429 C6.65676158,4.30466914 6.36681453,4.22036213 6.13122633,4.33928571 L6.13122633,4.33928571 L3.28571429,5.98214286 L3.28571429,9.26785714 L3.29376996,9.35773278 C3.33610592,9.59098198 3.5402544,9.76785714 3.78571429,9.76785714 L3.78571429,9.76785714 L3.87558992,9.75980147 C4.10883913,9.71746551 4.28571429,9.51331703 4.28571429,9.26785714 L4.28571429,9.26785714 L4.28571429,6.5585842 L6.63122633,5.20531112 L6.62971429,5.2025842 L6.62671429,5.20433157 L6.6809496,5.16681276 C6.83917739,5.03268521 6.89808247,4.81284846 6.82811696,4.6175767 Z" id="形状结合" fill="#3367D6"></path>
        </g>
    </g>
</svg>